<?xml version="1.0" encoding="utf-8"?>
<svg viewBox="2500 2500 15500 15500" xmlns="http://www.w3.org/2000/svg">
  <g>
    <g style="transform:none" fill="#FFF" stroke="#FFF" stroke-width="10">
      <path d="M9956 16072c-2-4-10-38-16-75-8-43-17-67-25-67s-16-9-20-19c-3-11-12-22-20-25-11-4-15 2-15 24 0 29-1 30-49 30-30 0-51-5-54-12s-6-1-6 15c-1 24-5 27-34 27-38 0-67-25-67-58 0-17-6-22-25-22s-25-5-25-22c0-16-3-19-9-10-5 8-38 16-84 19-77 6-77 6-77-35 0-38-2-41-31-44-27-3-34-10-48-45-21-54-64-99-123-129-77-39-128-31-198 32-50 45-70 82-79 143-6 45-7 46-45 49-39 3-39 3-34-81 4-55 11-94 22-108 18-26 22-89 6-89-5 0-10 9-10 20 0 17-7 20-39 20-42 0-51-11-51-60 0-19-6-31-19-35-10-3-21-15-24-25-4-15-14-20-36-20-28 0-31-3-31-30s-3-30-30-30c-24 0-31 5-36 26-6 25-10 26-52 21-52-6-63-18-60-69 1-20-4-43-11-52-15-18-12-99 9-246 18-130-10-322-49-333-14-3-20-22-30-83-20-134-28-166-70-274-129-333-375-597-715-765-211-104-431-153-631-142-491 29-926 316-1155 763-130 253-178 594-120 854 13 58 24 123 24 145 1 40 1 40-42 40-23 0-42 3-42 8 0 4-22 7-50 7-27 0-50-4-50-9 0-21-34-41-69-41-20 0-46-7-57-15-10-8-33-15-51-15-31 0-31 0-38-74-4-41-5-339-2-662 4-562 6-593 26-669 71-267 256-461 506-532 56-15 336-16 3980-18 2156 0 4109 2 4340 6 393 6 424 7 478 27 109 40 180 85 262 167 121 121 182 237 210 401 13 75 15 190 13 729-3 640-3 640-40 643-29 2-38-1-38-12 0-8-4-17-10-21-15-9-60 6-60 20 0 18-54 35-110 35-53 0-60-8-60-66 0-24-5-34-15-34-19 0-20-51-4-166 15-103 3-186-47-344-47-152-81-227-105-233-11-3-19-14-19-25 0-26-67-152-136-257-206-313-554-554-903-625-197-40-531-15-711 53-483 182-839 599-936 1094-24 120-23 339 1 453 20 96 65 231 102 303 15 31 23 62 21 87-2 33 6 49 60 118 50 64 62 88 62 116 0 32-3 36-25 36-15 0-25 6-25 14 0 15-33 21-182 32-65 5-80 3-102-12-14-11-26-25-26-31 0-17-8-16-26 2-9 8-33 15-55 15-38 0-39-1-39-35 0-24-5-35-15-35-8 0-15-9-15-20s-6-20-12-20c-7 0-22-3-34-6-20-5-21-3-16 45 5 51 5 51-37 51-33 0-41-3-41-19 0-10-15-38-34-63-26-34-51-52-99-73-59-25-68-26-104-15-95 31-158 105-172 199-6 45-7 46-44 49-31 3-39-1-49-22-6-14-15-26-19-26s-9-12-11-27c-3-28-28-46-28-20 0 11-18 17-71 22-63 6-72 5-84-12-11-15-35-23-104-32-78-11-91-16-97-34-4-12-17-44-29-72-12-27-25-58-28-67-4-10-16-18-27-18-19 0-20-6-20-206s-1-207-22-230c-18-19-33-24-74-24-52 0-52 0-59-252-3-139-5-289-3-333 3-80 3-80 78-85s75-5 78-82c4-109-2-118-88-118-70 0-70 0-70-126 0-125 0-126-29-155-24-23-38-29-74-29-50 0-104 16-129 38-15 13-18 34-18 144 0 128 0 128-56 128-90 0-94 5-94 115 0 95 0 95 75 95s75 0 73 333c-3 332-3 332-60 335-90 5-88-5-88 342 0 217 3 299 12 308 7 7 40 12 76 12 65 0 65 0 58 77-3 42-11 80-17 84-7 4-14 29-16 56-5 45-9 52-48 76-40 26-98 36-109 19zm-588-800c16-16 20-40 25-178 12-276 10-314-15-341-21-23-25-23-234-23-190 0-214 2-234 18-23 18-23 18-15 265 5 169 11 249 19 256 13 11 64 14 288 19 134 3 148 2 166-16zm2244-9c16-15 18-36 18-259 0-240 0-243-22-258-33-24-429-24-452 0-14 13-16 51-16 255 0 226 1 240 20 259s33 20 227 20c178 0 209-2 225-17zm-2365-993c39-22 61-44 83-83 51-90 33-158-65-244-55-48-55-48-55-139 0-99-10-122-50-109-18 6-20 14-20 109 0 103 0 103-39 114-49 15-116 87-131 141-22 81 26 172 112 215 67 34 101 33 165-4zm2233-5c46-32 88-96 96-147 11-66-48-157-123-190-42-19-42-19-45-121s-3-102-40-105c-38-3-38-3-38 102 0 58-4 106-8 106-5 0-27 16-51 36-71 62-100 146-72 216 14 38 80 108 116 125 46 20 118 11 165-22zm3160-505c27-27 25-55-6-79-27-21-35-20-66 7-24 20-23 43 2 70 26 27 44 28 70 2z"/>
      <path d="M8994 15147c-2-7-3-78-2-157 3-145 3-145 156-148 152-3 152-3 152 142 0 79-3 151-6 160-5 14-28 16-150 16-109 0-146-3-150-13zM11238 15153c-3-5-4-75-4-158 1-150 1-150 154-153s153-3 150 155-3 158-150 161c-80 1-148-1-150-5zM9066 14199c-24-19-26-27-26-89 0-91 22-120 98-128 62-6 96 2 122 28 16 16 20 34 20 90 0 62-3 74-25 95-21 22-33 25-93 25-55 0-75-4-96-21zM11299 14215c-36-20-53-65-47-127 5-44 11-57 43-86 35-33 40-34 98-30 52 4 64 9 88 36 25 27 29 41 29 88 0 65-21 111-56 124-37 14-125 11-155-5zM9180 15876c0-19 5-38 10-41 15-9 12-41-5-55-8-7-15-28-15-46 0-34 1-34 45-34 39 0 46 4 60 30 8 16 15 51 15 78 0 65-27 102-76 102-32 0-34-2-34-34zM11262 15880c-15-24-16-124-2-151 19-34 68-52 131-47 80 6 109 33 109 100 0 46-1 48-29 48-19 0-42-11-63-30-33-30-33-30-50-8-11 15-13 27-7 33 5 5 9 24 9 42 0 32-1 33-43 33-31 0-45-5-55-20zM13676 15865c-4-11-21-15-61-15-55 0-55 0-55-34 0-19 3-36 8-39 4-2 0-2-8 0-8 3-54 7-102 10-88 6-88 6-88-65s0-71 48-77c69-9 194-36 189-41-2-2-38 3-80 12-42 8-93 14-114 12-38-3-38-3-38-73s0-70 45-76 45-6-2-7c-48-2-48-2-48-67 0-72-5-68 95-79 29-3 85-23 135-47 67-33 103-60 174-130 81-80 93-89 127-89 45 0 69 27 69 77 0 23-14 49-55 100-30 37-49 70-43 72 11 4 38-27 98-114 31-43 41-50 74-53 74-6 109 64 69 141-9 18-32 56-51 85-28 41-33 55-23 65 8 8 14 8 19 1 4-5 34-47 66-92 55-76 62-82 94-82 22 0 48 9 69 26 28 21 33 31 33 67 0 46-26 86-159 243-91 107-172 172-294 234-105 53-178 67-191 35z"/>
      <path d="M12479 15789c-19-21-29-42-29-62 0-25-13-44-61-93-59-60-61-61-107-57-47 5-47 5-93-79-84-149-129-298-149-488-21-197-1-361 70-564 51-148 81-208 161-320 179-250 460-444 759-523 130-34 455-44 595-18 177 33 386 125 534 235 143 107 295 290 381 460 40 80 87 217 104 308 20 104 31 292 22 375-8 67-8 67-52 67-24 0-44-4-44-9 0-6-15-11-32-13-33-3-33-3-30-90 6-171-35-344-128-533-152-309-421-527-765-621-84-23-121-28-230-28-71-1-148 4-170 10-22 7-83 22-135 34-243 57-492 233-659 466-296 412-293 878 8 1273 34 44 66 83 71 86 6 3 10 22 10 41 0 27 8 41 35 65 29 26 35 38 35 70 0 38-1 39-36 39-27 0-43-7-65-31zM10410 15563c0-36 0-36-165-30s-165 6-165-159c0-164 0-164 200-164s200 0 200 195 0 195-35 195c-34 0-35-1-35-37zM8200 15357c0-17 4-47 9-65 13-43 5-62-26-62-25 0-26-1-20-62 3-35 13-99 21-143 40-212-4-477-111-675-148-272-408-478-728-577-84-26-102-27-270-28-166 0-188 3-280 28-224 62-380 156-526 319-138 154-234 326-286 514-25 88-28 115-27 244 1 126 5 158 29 245 15 55 30 117 32 138 5 38 5 38-38 35-40-3-44-6-47-30-2-19-9-28-21-28-10 0-24-7-31-15s-23-15-36-15c-36 0-45-51-51-262-6-207 3-298 43-437 62-212 162-380 322-541 257-257 535-370 914-370 249 0 373 28 583 130 141 69 228 132 345 250 196 195 288 373 347 668 12 64 17 136 17 272-1 198-9 260-61 418-27 82-27 82-65 82-36 0-38-1-38-33z"/>
      <path d="M6953 15215c-102-31-176-96-222-195-23-48-26-68-26-160 0-94 3-111 29-167 31-68 89-129 154-162 87-44 227-50 337-14 72 23 164 118 194 198 20 51 22 74 19 160-5 115-23 168-83 234-50 55-85 79-148 102-61 22-189 25-254 4zm157-250c60-31 87-97 58-138-11-15-12-10-10 31 5 65-12 82-80 82-69 0-88-18-89-84 0-51 0-51-17-18-15 31-15 35 3 69 19 35 67 73 93 73 7 0 26-7 42-15zm-9-199c-18-10-32-11-53-4-15 6-28 12-28 14s24 4 53 4c49-1 51-1 28-14zM13203 15211c-94-35-157-93-200-186-25-54-28-71-28-165 0-92 4-112 27-162 33-72 93-136 160-174 50-28 59-29 173-29 116 0 123 1 187 33 73 36 124 87 160 161 20 40 23 61 23 171 0 113-2 130-25 175-32 65-101 132-170 164-76 35-229 41-307 12zm178-244c47-31 70-80 57-118-16-46-23-41-23 14 0 81-5 87-74 87-51 0-62-3-75-22-25-36-15-120 17-140 18-11 85-10 108 2 33 18 21 3-16-20-32-19-39-21-66-10-48 20-83 74-80 122 2 33 76 104 112 107 3 1 21-9 40-22zM10202 14753c3-338 3-338 71-341 67-3 67-3 67 135 0 76 3 229 7 341 6 202 6 202-71 202-76 0-76 0-74-337zM12762 14668c6-63 6-63-13-23-10 22-20 48-23 58-3 14-16 17-70 17-56 0-66-3-66-17-1-17-1-17-11 0-14 24-136 25-146 1-5-15-7-15-15 0-9 17-71 22-117 9-23-6-23-9-18-77 10-131 103-318 221-443 42-46 54-53 86-53 43 0 66 16 208 147 76 70 92 90 92 114 0 25 4 29 29 29 36 0 61 31 61 75 0 18-17 65-38 106s-41 84-44 97c-6 20-12 22-73 22-68 0-68 0-63-62zM6463 14713c-19-4-23-11-23-42 0-42 30-136 60-190 20-36 20-36-4-7-31 38-72 121-88 180-11 42-15 46-43 46-16 0-47-5-67-11-37-10-38-11-38-58 0-53 23-128 65-211 20-39 23-51 11-40-18 14-73 118-95 180-20 54-35 84-46 92-16 12-100 9-113-4-30-30-2-157 63-294 153-319 435-514 793-549 72-8 72-8 72 62s0 70-91 87c-87 17-204 54-195 63 2 2 21-3 42-11 55-21 137-36 194-36 50 0 50 0 50 70 0 64-2 70-22 74-105 21-181 43-223 63-27 13-41 20-30 17 104-34 226-64 250-62 30 3 30 4 33 69 3 67 3 67-70 88-40 12-89 29-108 39-37 18-100 80-100 98 0 6-9 19-21 30-36 32-112 147-135 204-22 53-25 55-61 56-21 1-48 0-60-3zM10204 14227c-3-8-4-41-2-73 3-59 3-59 68-59s65 0 65 70 0 70-63 73c-46 2-64-1-68-11zM7522 13049c-163-21-323-87-463-190-46-34-145-125-219-202-222-230-355-306-562-322-343-27-657-278-764-610-23-72-26-97-28-245-1-165-1-165 101-168 84-2 103 0 103 12 0 7 5 60 10 116 27 257 177 487 388 594 69 35 142 53 270 67 171 18 300 69 441 175 34 25 130 115 214 198 220 220 311 281 485 326 72 18 111 20 382 20 267 0 305 2 331 17 61 36 79 138 33 192-26 31-26 31-342 30-175-1-345-5-380-10zM12439 13047c-40-30-50-92-25-152s48-65 299-65c255 0 317-11 463-81 111-53 209-128 395-306 209-199 342-285 560-361 186-65 269-77 539-77 215 0 256 3 336 22 371 88 672 304 814 586 44 87 50 106 50 162 0 48-5 68-21 89-18 23-27 26-85 26-56 0-67-3-93-27-18-17-43-60-61-107-69-176-185-288-413-396-382-182-796-168-1159 39-113 65-188 125-363 293-162 155-235 218-253 218-5 0-40 17-78 38-38 20-96 46-129 56-33 11-64 23-70 26-34 23-125 30-397 30-215-1-297-4-309-13zM5719 13021c-47-38-34-182 19-209 24-13 449-23 497-12 62 14 85 48 85 125 0 58-2 65-31 89-31 26-31 26-289 26-236 0-260-2-281-19z"/>
      <path d="M14714 12846c-32-32-34-38-34-101s2-69 34-101 37-34 106-34c68 0 74 2 101 31s29 37 29 109c0 75-1 79-31 104-26 23-40 26-101 26-66 0-72-2-104-34zM5068 12381c-29-25-32-35-35-92-4-75 8-104 56-136 44-30 122-31 168-3 48 29 66 72 61 143-4 52-9 64-36 88-29 26-39 29-107 29s-78-3-107-29zM15681 11588c-94-35-95-218-1-265 33-17 93-16 135 1 51 22 75 68 75 143 0 54-4 67-28 94-23 26-36 31-87 35-35 2-74-1-94-8zM4639 11562c-25-23-33-38-36-79-6-63 10-116 44-143 20-16 41-20 95-20 64 0 72 3 99 29 27 27 29 35 29 106 0 62-4 83-21 106-20 28-24 29-100 29-72 0-81-2-110-28zM15480 8990c0-760 0-760 35-760 121 0 378 185 515 370 44 59 50 74 50 116 1 27 7 78 15 114 8 38 14 121 15 201 0 160-19 251-77 362-47 91-170 218-268 275-67 39-202 82-259 82-26 0-26 0-26-760zM4920 9721c-211-67-397-247-466-451-16-46-19-86-19-252 0-109-3-198-7-198-5 0-8-15-8-33 0-84 215-356 357-452 21-14 55-36 76-50 54-37 136-66 171-63 31 3 31 3 34 761 2 757 2 757-40 756-24 0-68-8-98-18zM14750 8918c0-811 0-819 21-863 28-59 73-86 153-92 81-7 126 8 170 57 27 31 36 50 42 97 6 51-2 1602-8 1608-2 2-87 5-190 7-188 5-188 5-188-814zM5415 9718c-2-7-6-373-9-813-5-760-4-802 13-840 10-22 31-51 45-65 26-23 35-25 129-25 115 0 139 10 176 76 21 36 21 46 21 858 0 821 0 821-185 821-140 0-187-3-190-12zM5168 7672c-91-68-129-190-97-316 15-58 75-135 129-163 40-22 55-24 141-21s101 6 145 33c60 37 114 113 114 161 0 19-4 34-10 34-5 0-10 12-10 28 0 121-138 252-266 252-18 0-36 5-39 10-12 19-70 9-107-18zM14976 7639c-54-60-66-97-66-202 0-91 13-129 66-187 52-57 85-72 179-78 129-8 201 26 269 128 17 25 22 100 7 100-4 0-11 15-14 33-8 48-44 120-80 160-39 42-120 77-181 77-25 0-48 5-51 10-3 6-23 10-45 10-33 0-44-6-84-51zM7666 6839c-41-32-56-71-56-144 0-45 6-77 19-103 20-39 303-322 406-406 176-144 534-345 820-460 74-30 101-36 163-36 75 0 75 0 114 40 37 40 38 42 38 118 0 96-19 133-82 156-198 72-278 106-378 156-271 139-552 356-748 580-98 112-111 120-198 120-57 0-77-4-98-21zM5489 6813c-36-4-36-4-48-73-15-91-14-120 5-177 38-117 210-442 317-603 128-191 405-541 482-608 33-30 41-32 109-32 88 0 111 15 158 96 16 30 36 54 44 54 9 0 14 12 14 35 0 22-5 35-13 35-28 0-326 347-488 568-77 105-215 330-299 487-23 44-62 108-86 141-56 80-80 89-195 77zM14821 6673c-179-353-386-656-656-961-165-188-168-194-114-301 39-79 67-94 160-89 59 3 72 8 100 33 33 32 253 297 331 400 157 208 354 548 437 758 26 65 31 91 31 162 0 53-4 85-11 85-5 0-27 11-47 25-29 20-49 25-99 25-62 0-62 0-132-137zM9524 5860c-11-4-33-22-47-40-24-28-27-39-27-111 0-114 26-157 109-179 71-19 137-5 185 40 40 38 41 40 44 117 3 69 1 82-20 112-34 51-81 71-158 70-36 0-74-4-86-9zM6847 5063c-27-7-37-44-37-132 0-91 17-124 103-204 52-47 130-107 142-107 3 0 33-22 68-49 140-109 341-237 517-328 47-25 92-50 100-57s51-30 95-51c44-20 116-54 160-75 136-64 203-91 280-112 22-6 51-19 64-30 13-10 32-18 42-18 11 0 27-4 37-9 36-19 89-40 147-56 33-10 74-24 92-31 17-8 40-14 51-14s33-7 48-15c16-8 41-15 56-15s29-4 32-9c3-4 31-11 63-14s94-16 138-30c44-13 107-30 140-36 199-39 275-51 326-51 32 0 60-4 63-9 3-4 40-11 83-15s105-11 138-16c106-16 714-24 905-11 192 13 524 58 720 97 512 103 1066 308 1500 557 160 91 431 274 560 377 228 182 258 225 246 350-3 38-11 81-18 95-12 26-13 27-82 20-79-8-91-14-223-112-441-327-886-581-1262-720-201-74-410-145-526-179-126-37-458-107-591-125-44-6-108-14-144-20-107-15-467-39-587-39-224 0-677 47-923 96-482 95-997 276-1477 517-216 108-540 318-770 498-114 89-114 89-186 88-40-1-80-3-90-6z"/>
    </g>
  </g>
  <g>
    <g style="transform:none" fill="#C0C1AD" stroke="#C0C1AD" stroke-width="10">
      <path d="M 10232 16446 C 10227 16454 6186 16325 6139 16313 C 5868 16247 5609 16039 5481 15783 C 5392 15607 5360 15461 5360 15234 C 5360 15127 5363 15100 5374 15100 C 5389 15100 5400 15130 5400 15173 C 5400 15197 5403 15199 5418 15191 C 5432 15183 5445 15187 5472 15206 C 5502 15228 5511 15230 5530 15220 C 5548 15211 5555 15212 5571 15226 C 5588 15241 5593 15242 5600 15230 C 5605 15222 5612 15219 5616 15223 C 5620 15226 5618 15235 5612 15243 C 5599 15259 5609 15274 5633 15277 C 5645 15277 5649 15273 5646 15264 C 5643 15256 5650 15245 5661 15239 C 5683 15228 5715 15234 5706 15249 C 5700 15259 5725 15272 5733 15264 C 5736 15261 5734 15244 5729 15227 C 5722 15199 5722 15197 5734 15213 C 5741 15222 5752 15230 5758 15230 C 5764 15230 5776 15254 5785 15283 C 5814 15373 5908 15551 5978 15649 C 6041 15738 6233 15938 6286 15970 C 6299 15978 6310 15990 6310 15997 C 6310 16004 6319 16010 6330 16010 C 6340 16010 6423 16046 6512 16089 C 6755 16207 6886 16240 7120 16240 C 7324 16239 7454 16208 7657 16109 C 7798 16040 7897 15969 8031 15838 C 8245 15628 8360 15415 8424 15110 C 8445 15013 8450 14962 8450 14845 C 8450 14714 8457 14673 8474 14715 C 8477 14723 8486 14730 8494 14730 C 8538 14730 8560 15006 8531 15198 C 8517 15292 8517 15292 8546 15318 C 8562 15333 8579 15346 8585 15346 C 8590 15347 8601 15348 8608 15349 C 8614 15349 8620 15357 8620 15365 C 8620 15384 8679 15385 8686 15366 C 8693 15349 8722 15356 8749 15382 C 8764 15396 8785 15401 8823 15402 C 8869 15403 8872 15404 8848 15412 C 8832 15417 8820 15426 8820 15432 C 8820 15438 8813 15440 8805 15437 C 8797 15433 8788 15436 8784 15442 C 8779 15449 8782 15450 8790 15445 C 8800 15439 8802 15442 8798 15458 C 8794 15474 8796 15477 8808 15473 C 8819 15468 8821 15470 8815 15480 C 8809 15489 8811 15492 8822 15488 C 8845 15479 8862 15514 8846 15536 C 8832 15555 8835 15580 8852 15580 C 8857 15580 8860 15574 8859 15568 C 8856 15541 8860 15529 8871 15536 C 8878 15540 8878 15535 8870 15520 C 8854 15490 8862 15486 8889 15512 C 8912 15533 8912 15533 8905 15510 C 8900 15494 8901 15489 8911 15492 C 8919 15495 8925 15505 8925 15516 C 8925 15526 8930 15535 8935 15535 C 8941 15535 8954 15541 8965 15548 C 8984 15560 8984 15561 8963 15555 C 8949 15551 8940 15553 8940 15559 C 8940 15565 8944 15570 8949 15570 C 8965 15570 8968 15608 8953 15614 C 8945 15618 8940 15626 8943 15634 C 8946 15641 8940 15662 8929 15679 C 8907 15716 8890 15827 8908 15816 C 8915 15812 8920 15794 8920 15777 C 8920 15743 8951 15667 8969 15656 C 8987 15645 8982 15672 8959 15709 C 8941 15739 8939 15749 8949 15802 C 8962 15879 9004 15938 9070 15974 C 9133 16008 9180 16010 9235 15982 C 9316 15941 9370 15860 9370 15781 C 9370 15736 9384 15719 9395 15753 C 9399 15766 9403 15770 9407 15763 C 9415 15743 9435 15748 9470 15778 C 9501 15806 9501 15807 9481 15813 C 9452 15820 9453 15849 9483 15846 C 9496 15845 9511 15841 9517 15837 C 9523 15833 9535 15833 9544 15836 C 9553 15839 9560 15838 9560 15832 C 9560 15826 9556 15820 9552 15818 C 9547 15816 9555 15805 9570 15793 C 9600 15768 9634 15776 9611 15803 C 9601 15816 9603 15818 9624 15816 C 9650 15813 9659 15823 9640 15835 C 9635 15838 9630 15845 9630 15850 C 9630 15856 9639 15852 9649 15843 C 9660 15834 9666 15822 9664 15815 C 9659 15802 9708 15801 9728 15814 C 9746 15825 9742 15836 9721 15836 C 9710 15836 9704 15832 9706 15828 C 9712 15818 9696 15817 9687 15827 C 9683 15830 9690 15844 9702 15857 C 9714 15870 9718 15880 9712 15880 C 9705 15880 9700 15875 9700 15869 C 9700 15864 9695 15862 9689 15866 C 9681 15870 9682 15875 9691 15881 C 9702 15888 9702 15892 9692 15898 C 9683 15905 9684 15911 9700 15925 C 9711 15935 9720 15938 9720 15932 C 9720 15926 9716 15918 9710 15915 C 9704 15911 9705 15904 9713 15896 C 9719 15888 9729 15884 9733 15887 C 9738 15890 9736 15882 9730 15869 C 9718 15846 9718 15846 9736 15861 C 9765 15886 9784 15895 9776 15881 C 9771 15874 9776 15860 9785 15850 C 9795 15839 9799 15826 9794 15818 C 9790 15811 9798 15815 9812 15827 C 9833 15847 9838 15848 9855 15836 C 9872 15824 9877 15824 9892 15842 C 9901 15853 9914 15859 9919 15855 C 9926 15851 9927 15856 9923 15867 C 9917 15884 9918 15884 9937 15868 C 9948 15858 9961 15850 9966 15850 C 9971 15850 9971 15854 9965 15858 C 9960 15862 9948 15874 9940 15884 C 9927 15902 9927 15903 9941 15898 C 9950 15895 9963 15896 9970 15900 C 9981 15907 9981 15911 9971 15924 C 9963 15934 9962 15940 9968 15940 C 9974 15940 9977 15954 9975 15971 C 9971 15998 9973 16001 9991 15997 C 10011 15992 10011 15992 9994 16011 C 9964 16045 9991 16052 10038 16022 C 10078 15997 10081 15992 10077 15958 C 10074 15937 10077 15920 10082 15920 C 10087 15920 10084 15913 10076 15904 C 10054 15883 10056 15879 10085 15886 C 10106 15891 10110 15889 10110 15869 C 10110 15830 10121 15800 10136 15800 C 10146 15800 10149 15840 10152 15986 C 10155 16172 10155 16172 10198 16210 C 10240 16248 10240 16248 10240 16341 C 10240 16393 10236 16440 10232 16446 Z M 8461 16114 C 8483 16091 8484 16087 8469 16062 C 8453 16032 8422 16023 8391 16040 C 8363 16054 8364 16094 8392 16120 C 8420 16146 8432 16145 8461 16114 Z M 9816 15886 C 9809 15875 9797 15864 9789 15861 C 9777 15857 9777 15859 9788 15873 C 9796 15882 9799 15893 9797 15897 C 9794 15902 9800 15906 9811 15906 C 9827 15906 9828 15903 9816 15886 Z M 8744 15429 C 8740 15421 8744 15420 8759 15425 C 8783 15432 8786 15427 8767 15411 C 8756 15403 8749 15405 8735 15420 C 8718 15439 8718 15440 8734 15440 C 8744 15440 8748 15435 8744 15429 Z M 8596 15373 C 8588 15354 8567 15357 8552 15380 C 8544 15393 8544 15400 8551 15400 C 8556 15400 8559 15404 8555 15409 C 8552 15414 8558 15420 8567 15422 C 8586 15426 8604 15395 8596 15373 Z M 14308 16345 C 14271 16351 10370 16460 10370 16340 C 10370 16231 10372 16220 10390 16210 C 10408 16200 10410 16187 10412 15982 C 10415 15765 10415 15765 10480 15762 C 10516 15760 10548 15754 10552 15747 C 10556 15740 10560 15680 10560 15613 C 10560 15510 10562 15490 10575 15490 C 10583 15490 10590 15497 10590 15505 C 10590 15513 10599 15520 10610 15520 C 10621 15520 10633 15528 10637 15538 C 10643 15555 10675 15631 10697 15680 C 10706 15698 10709 15700 10709 15688 C 10710 15664 10727 15665 10740 15690 C 10754 15715 10770 15716 10763 15691 C 10760 15681 10763 15669 10769 15666 C 10775 15662 10780 15667 10780 15678 C 10780 15702 10827 15725 10845 15710 C 10854 15702 10865 15707 10884 15731 C 10899 15748 10913 15760 10916 15757 C 10919 15754 10902 15733 10878 15710 C 10854 15687 10843 15670 10852 15673 C 10861 15676 10871 15673 10874 15665 C 10881 15645 10920 15658 10913 15678 C 10909 15693 10910 15693 10919 15680 C 10926 15669 10925 15659 10914 15643 C 10893 15610 10910 15615 10943 15650 C 10963 15671 10967 15680 10956 15680 C 10936 15680 10925 15699 10939 15713 C 10946 15720 10955 15718 10970 15705 C 10988 15688 10991 15688 11015 15704 C 11041 15721 11041 15721 11024 15693 C 11009 15669 11011 15670 11046 15703 C 11075 15730 11092 15739 11104 15734 C 11120 15728 11121 15729 11109 15749 C 11101 15760 11092 15770 11087 15770 C 11083 15770 11084 15776 11090 15783 C 11096 15789 11107 15804 11115 15815 C 11130 15835 11130 15835 11136 15813 C 11146 15776 11164 15787 11184 15843 C 11208 15911 11279 15981 11341 15999 C 11428 16023 11521 15972 11566 15876 C 11587 15831 11589 15816 11584 15753 C 11580 15713 11580 15680 11583 15680 C 11593 15680 11620 15737 11613 15744 C 11609 15747 11612 15750 11619 15750 C 11627 15750 11629 15743 11624 15728 C 11610 15683 11611 15620 11627 15605 C 11647 15584 11663 15586 11657 15609 C 11651 15635 11667 15660 11678 15642 C 11685 15632 11689 15632 11700 15645 C 11710 15657 11715 15658 11721 15649 C 11734 15628 11762 15658 11754 15684 C 11748 15704 11748 15704 11766 15682 C 11799 15642 11828 15673 11811 15729 C 11811 15731 11803 15727 11795 15720 C 11782 15709 11780 15712 11780 15739 C 11780 15773 11790 15778 11814 15755 C 11822 15747 11843 15740 11860 15740 C 11878 15740 11889 15736 11885 15730 C 11882 15725 11870 15720 11859 15720 C 11845 15720 11840 15713 11840 15695 C 11840 15681 11845 15670 11850 15670 C 11856 15670 11860 15676 11860 15684 C 11860 15691 11870 15700 11882 15704 C 11910 15711 11929 15695 11912 15678 C 11905 15671 11900 15659 11900 15651 C 11900 15640 11904 15641 11920 15655 C 11945 15677 11946 15696 11923 15709 C 11913 15714 11906 15720 11908 15722 C 11910 15724 11908 15733 11904 15743 C 11899 15756 11904 15766 11921 15778 C 11946 15796 11990 15802 11990 15788 C 11990 15784 11978 15780 11964 15780 C 11945 15780 11939 15776 11942 15763 C 11944 15753 11952 15746 11960 15748 C 11967 15750 11977 15745 11982 15738 C 11990 15728 11993 15728 11997 15738 C 11999 15744 12006 15748 12011 15744 C 12016 15741 12020 15744 12020 15749 C 12020 15755 12016 15760 12010 15760 C 11996 15760 11997 15787 12011 15796 C 12017 15799 12026 15797 12030 15790 C 12034 15783 12043 15781 12049 15784 C 12055 15788 12060 15787 12060 15782 C 12060 15777 12080 15775 12105 15778 C 12135 15781 12150 15779 12150 15771 C 12150 15765 12145 15760 12138 15760 C 12132 15760 12135 15751 12145 15740 C 12162 15721 12164 15721 12182 15736 C 12216 15768 12200 15739 12135 15654 C 12068 15566 12050 15526 12068 15508 C 12074 15502 12076 15491 12073 15484 C 12070 15475 12075 15470 12087 15470 C 12101 15470 12122 15495 12159 15555 C 12261 15723 12438 15909 12590 16011 C 12628 16036 12706 16080 12762 16107 C 13097 16271 13403 16297 13760 16191 C 14071 16098 14279 15948 14501 15655 C 14612 15508 14706 15274 14731 15081 C 14753 14912 14737 14666 14696 14505 C 14678 14440 14675 14370 14689 14370 C 14694 14370 14700 14377 14704 14385 C 14707 14393 14716 14400 14723 14400 C 14751 14400 14850 14675 14872 14815 C 14882 14881 14879 15000 14864 15098 C 14860 15122 14861 15140 14866 15139 C 14888 15135 14898 15142 14902 15165 C 14905 15178 14903 15191 14897 15193 C 14892 15194 14890 15206 14894 15218 C 14900 15236 14907 15240 14928 15236 C 14943 15234 14956 15231 14958 15230 C 14961 15227 14977 15223 14991 15221 C 14996 15221 14998 15215 14995 15210 C 14991 15204 14983 15200 14977 15201 C 14949 15204 14929 15199 14935 15191 C 14938 15185 14981 15181 15031 15181 C 15113 15181 15123 15183 15127 15200 C 15134 15227 15150 15215 15150 15184 C 15150 15161 15152 15160 15165 15174 C 15199 15208 15176 15490 15127 15635 C 15006 15990 14655 16294 14308 16345 Z" style=""/>
      <path d="M13165 16163c-193-25-430-118-575-226-97-72-200-169-276-259-63-76-74-94-74-126 1-31 3-35 13-21 12 17 72 16 82-1 3-5 35 23 72 61 36 38 68 67 70 65 3-2-19-33-47-68-92-114-92-130 1-33 34 36 66 65 71 65 6 0 44 30 86 66 201 172 389 261 637 299 175 28 294 17 472-40 188-61 279-116 428-257 63-60 137-139 164-176 100-132 167-292 198-472 9-52 22-98 27-102 19-13 28-9 21 11-3 11-1 22 5 26 5 3 10 2 10-3 0-15 41-2 47 14 8 21 33 17 33-6 0-13 7-20 20-20 25 0 25 11 5 145-58 388-298 717-678 928-26 15-52 27-57 27-6 0-29 9-53 19-59 27-127 48-232 71-73 16-124 19-265 18-96 0-188-3-205-5zm-643-415c-41-42-52-31-12 12 17 18 34 30 37 26 4-4-7-21-25-38zM6895 16150c-205-27-449-134-622-272-93-73-217-211-288-318-93-140-165-316-165-401 0-43 15-60 25-29 5 16 10 18 19 11 9-8 19-4 36 14 13 14 31 25 41 25 12 0 19 9 21 27 2 14 9 28 15 31 10 3 9-7-2-38-18-52-18-50 0-50 9 0 15 9 15 25 0 13 6 28 14 32s37 52 65 105c222 425 661 696 1091 675 153-7 383-94 553-209 175-117 353-353 422-558 16-49 27-66 42-68 17-3 20 2 17 24-2 20 0 24 9 15 6-6 18-11 27-11 13 0 13 1 0 10-13 8-12 10 3 10 10 0 15 5 12 10-3 6-2 10 2 10 12 0 15 48 4 68-15 31-22 72-11 72 5 0 9-3 8-7-1-5 5-21 12-38 7-16 16-41 21-55 6-16 7-1 3 45-10 137-120 320-308 513-65 67-123 122-128 122s-28 13-51 29c-23 15-66 41-95 56s-55 31-58 36-14 9-25 9-65 16-120 35c-71 25-131 38-207 45-122 11-308 11-397 0zM10210 15925c0-175 0-175 64-175 36 0 67 3 69 8 3 4 3 82 0 175-6 167-6 167-69 167-64 0-64 0-64-175z" style=""/>
      <path d="M 13377 15953 C 13373 15950 13370 15917 13370 15881 C 13370 15814 13370 15814 13473 15797 C 13529 15788 13600 15780 13630 15781 C 13685 15782 13685 15782 13641 15796 C 13579 15815 13577 15823 13634 15817 C 13673 15814 13687 15817 13702 15832 C 13713 15843 13728 15849 13736 15846 C 13745 15842 13750 15848 13750 15863 C 13750 15882 13738 15890 13678 15912 C 13576 15949 13397 15974 13377 15953 Z M 9059 15901 C 9033 15874 9030 15865 9030 15803 C 9030 15743 9033 15730 9053 15712 C 9073 15693 9088 15690 9156 15690 C 9235 15690 9235 15690 9253 15726 C 9264 15749 9270 15784 9270 15830 C 9270 15918 9256 15930 9157 15930 C 9095 15930 9086 15927 9059 15901 Z M 9260 15809 C 9260 15779 9232 15730 9214 15730 C 9201 15730 9202 15735 9219 15756 C 9244 15788 9245 15814 9225 15855 C 9210 15885 9210 15885 9235 15857 C 9249 15842 9260 15820 9260 15809 Z M 11308 15918 C 11288 15901 11270 15846 11271 15806 C 11273 15779 11273 15779 11277 15800 C 11283 15837 11302 15870 11316 15870 C 11326 15870 11326 15864 11315 15843 C 11307 15828 11302 15814 11303 15811 C 11342 15720 11382 15712 11451 15781 C 11469 15799 11470 15799 11470 15782 C 11470 15757 11430 15722 11393 15714 C 11359 15707 11307 15729 11291 15757 C 11285 15767 11281 15771 11281 15765 C 11280 15737 11319 15708 11363 15703 C 11404 15698 11416 15701 11460 15731 C 11506 15763 11510 15768 11510 15808 C 11510 15857 11489 15904 11461 15920 C 11434 15934 11327 15933 11308 15918 Z M 9563 15769 C 9570 15749 9531 15712 9520 15729 C 9516 15737 9508 15734 9496 15721 C 9480 15703 9480 15703 9504 15703 C 9518 15703 9540 15715 9556 15731 C 9579 15755 9582 15762 9570 15773 C 9560 15783 9558 15782 9563 15769 Z M 9330 15683 C 9330 15648 9331 15647 9349 15664 C 9359 15674 9370 15690 9373 15701 C 9377 15716 9373 15720 9354 15720 C 9333 15720 9330 15715 9330 15683 Z M 9373 15675 C 9364 15650 9377 15646 9390 15669 C 9397 15684 9397 15690 9390 15690 C 9384 15690 9377 15683 9373 15675 Z M 9596 15665 C 9602 15651 9600 15649 9589 15655 C 9577 15663 9577 15661 9588 15647 C 9596 15638 9599 15626 9595 15621 C 9592 15615 9595 15613 9604 15616 C 9628 15625 9630 15647 9609 15666 C 9590 15683 9589 15683 9596 15665 Z M 10777 15646 C 10752 15627 10756 15620 10790 15620 C 10822 15620 10828 15631 10807 15648 C 10799 15655 10790 15655 10777 15646 Z M 10080 15550 C 10080 15503 10083 15490 10095 15490 C 10103 15490 10110 15493 10110 15498 C 10110 15502 10184 15503 10274 15502 C 10439 15498 10439 15498 10443 15537 C 10446 15569 10447 15567 10448 15523 C 10449 15494 10455 15470 10460 15470 C 10467 15470 10470 15495 10468 15538 C 10465 15605 10465 15605 10273 15608 C 10080 15610 10080 15610 10080 15550 Z M 11365 15459 C 11361 15453 11360 15446 11363 15443 C 11370 15436 11390 15449 11390 15461 C 11390 15473 11373 15473 11365 15459 Z M 15086 15155 C 15078 15147 15067 15140 15061 15140 C 15038 15140 15051 15121 15077 15118 C 15093 15116 15104 15108 15106 15097 C 15112 15055 15120 15070 15119 15118 C 15117 15173 15111 15179 15086 15155 Z M 9390 14903 C 9390 14708 9390 14707 9410 14725 C 9428 14742 9430 14756 9430 14899 C 9430 15067 9425 15100 9404 15100 C 9393 15100 9390 15064 9390 14903 Z M 5360 14310 C 5360 14249 5363 14230 5374 14230 C 5390 14230 5400 14260 5400 14310 C 5400 14360 5390 14390 5374 14390 C 5363 14390 5360 14371 5360 14310 Z M 5482 11010 C 5415 10969 5414 10966 5407 10601 C 5398 10177 5408 9660 5425 9660 C 5432 9660 5440 9669 5443 9680 C 5448 9699 5457 9700 5604 9700 C 5736 9700 5760 9698 5760 9685 C 5760 9677 5767 9670 5775 9670 C 5788 9670 5790 9746 5790 10291 C 5790 10975 5792 10951 5728 11005 C 5701 11028 5690 11030 5607 11030 C 5533 11030 5509 11026 5482 11010 Z M 14828 11005 C 14754 10955 14753 10949 14747 10625 C 14739 10226 14751 9678 14768 9672 C 14774 9670 14780 9676 14780 9687 C 14780 9704 14790 9705 14940 9702 C 15072 9700 15100 9696 15100 9685 C 15100 9677 15107 9670 15115 9670 C 15128 9670 15130 9747 15130 10303 C 15130 10905 15129 10936 15111 10964 C 15076 11017 15044 11030 14950 11030 C 14876 11030 14860 11027 14828 11005 Z M 15485 10689 C 15482 10676 15481 10445 15482 10176 C 15484 9795 15488 9686 15498 9682 C 15505 9680 15510 9687 15510 9698 C 15510 9718 15510 9718 15588 9698 C 15693 9672 15789 9613 15886 9516 C 15980 9422 16038 9318 16065 9195 C 16088 9093 16081 8908 16051 8796 C 16036 8738 16033 8714 16041 8709 C 16047 8705 16049 8697 16046 8691 C 16041 8684 16048 8680 16064 8680 C 16083 8680 16096 8692 16123 8738 C 16244 8938 16299 9114 16319 9362 C 16359 9845 16204 10253 15874 10535 C 15781 10613 15618 10698 15543 10707 C 15494 10712 15491 10711 15485 10689 Z M 4895 10676 C 4756 10613 4603 10496 4513 10385 C 4379 10218 4295 10045 4244 9825 C 4217 9710 4217 9324 4243 9202 C 4271 9078 4317 8946 4367 8848 C 4405 8773 4416 8760 4437 8760 C 4455 8760 4461 8764 4456 8775 C 4453 8784 4456 8790 4465 8790 C 4476 8790 4478 8797 4472 8823 C 4468 8840 4465 8929 4465 9020 C 4465 9204 4473 9241 4538 9360 C 4590 9457 4724 9585 4825 9637 C 4894 9672 4995 9710 5022 9710 C 5026 9710 5030 9703 5030 9694 C 5030 9685 5034 9680 5040 9682 C 5046 9684 5051 9873 5054 10193 C 5058 10700 5058 10700 5002 10699 C 4965 10699 4927 10691 4895 10676 Z M 5400 8280 C 5400 8219 5403 8200 5414 8200 C 5430 8200 5440 8230 5440 8280 C 5440 8330 5430 8360 5414 8360 C 5403 8360 5400 8341 5400 8280 Z M 15120 7734 C 15049 7710 15030 7696 15030 7667 C 15030 7642 15032 7639 15045 7650 C 15057 7660 15064 7660 15072 7652 C 15079 7645 15104 7640 15128 7640 C 15187 7640 15268 7605 15307 7563 C 15343 7523 15379 7451 15387 7403 C 15390 7385 15397 7370 15402 7370 C 15408 7370 15410 7363 15406 7355 C 15402 7344 15407 7340 15424 7340 C 15456 7340 15460 7355 15460 7466 C 15460 7541 15456 7569 15439 7605 C 15413 7660 15354 7713 15301 7728 C 15263 7740 15149 7743 15120 7734 Z M 5243 7715 C 5217 7704 5210 7695 5210 7674 C 5210 7652 5213 7650 5224 7659 C 5234 7667 5240 7668 5245 7660 C 5248 7655 5266 7650 5284 7650 C 5347 7650 5412 7619 5471 7561 C 5528 7505 5550 7460 5550 7398 C 5550 7382 5554 7370 5560 7370 C 5565 7370 5567 7363 5564 7355 C 5560 7345 5564 7340 5579 7340 C 5593 7340 5604 7349 5611 7368 C 5627 7407 5616 7549 5595 7591 C 5574 7633 5514 7697 5478 7716 C 5442 7735 5286 7734 5243 7715 Z M 5597 6976 C 5538 6954 5500 6919 5470 6855 C 5446 6806 5444 6750 5465 6750 C 5473 6750 5480 6756 5480 6764 C 5480 6782 5553 6789 5588 6774 C 5619 6761 5679 6679 5740 6565 C 5825 6407 5962 6183 6039 6078 C 6206 5850 6499 5511 6529 5509 C 6539 5509 6535 5504 6520 5497 C 6496 5486 6496 5486 6533 5482 C 6601 5476 6650 5546 6650 5647 C 6650 5716 6651 5713 6515 5875 C 6280 6153 6110 6411 5948 6735 C 5863 6905 5826 6958 5785 6976 C 5742 6994 5647 6994 5597 6976 Z M 14754 6971 C 14706 6942 14681 6903 14565 6680 C 14387 6339 14316 6232 14092 5958 C 13892 5713 13886 5705 13892 5634 C 13899 5552 13947 5498 14024 5484 C 14057 5478 14062 5480 14057 5492 C 14050 5512 14071 5541 14195 5682 C 14465 5987 14672 6290 14851 6643 C 14919 6776 14922 6780 14953 6780 C 14971 6780 15002 6769 15022 6755 C 15042 6741 15064 6730 15069 6730 C 15075 6730 15080 6723 15080 6715 C 15080 6707 15087 6700 15095 6700 C 15117 6700 15114 6775 15091 6825 C 15068 6875 14997 6956 14959 6975 C 14916 6998 14793 6995 14754 6971 Z M 6975 5208 C 6900 5181 6830 5098 6830 5036 C 6830 4996 6837 4991 6855 5017 C 6863 5027 6886 5035 6922 5038 C 6976 5042 6976 5042 7091 4952 C 7222 4850 7463 4684 7626 4584 C 7995 4357 8647 4096 9130 3981 C 9475 3898 9959 3840 10293 3840 C 10438 3840 10792 3863 10910 3879 C 10946 3885 11010 3893 11054 3899 C 11187 3917 11519 3987 11645 4024 C 11761 4058 11970 4129 12171 4203 C 12564 4348 12959 4576 13491 4964 C 13555 5011 13583 5025 13621 5030 C 13663 5035 13670 5034 13679 5016 C 13687 4999 13689 5005 13689 5046 C 13690 5094 13686 5102 13645 5148 C 13600 5198 13599 5198 13526 5205 C 13477 5210 13439 5208 13415 5200 C 13394 5193 13300 5133 13206 5067 C 12648 4675 12226 4464 11650 4292 C 11376 4210 11194 4172 10865 4128 C 10543 4086 9945 4093 9660 4142 C 9597 4153 9515 4166 9478 4171 C 9249 4201 8734 4345 8470 4454 C 8284 4531 8093 4615 8077 4628 C 8070 4634 8025 4659 7975 4685 C 7926 4711 7872 4742 7855 4755 C 7839 4767 7800 4790 7770 4805 C 7740 4820 7702 4842 7685 4854 C 7669 4865 7648 4880 7638 4885 C 7603 4906 7433 5025 7375 5069 C 7299 5128 7229 5175 7180 5200 C 7136 5222 7027 5226 6975 5208 Z"/>
    </g>
  </g>
  <g>
    <path d="M9810 11816c-69-8-161-21-205-29-44-9-127-24-185-32-410-64-996-269-1370-478-289-162-471-278-609-386-305-240-590-522-740-731-72-101-259-404-305-495-104-207-246-626-267-789-4-32-12-61-17-65-13-8 2-671 18-786 35-256 127-588 237-855 40-98 191-393 253-495 235-385 547-758 840-1004 317-266 548-419 905-601 452-229 874-352 1440-421 163-19 212-21 525-16 466 7 704 36 1042 128 353 95 537 164 844 316 425 210 832 509 1123 823 336 364 587 737 785 1171 129 281 224 616 277 974 29 199 41 755 16 755-11 0-17 15-22 53-50 407-281 944-561 1308-91 118-325 377-406 450-139 125-363 309-453 372-266 188-500 323-745 432-190 84-214 94-285 116-38 12-74 25-80 29-14 10-213 72-385 119-176 48-292 72-560 112-198 30-219 31-595 34-274 3-427 0-515-9zm2577-1007c99-47 171-151 180-260 5-50 2-67-23-116-35-73-111-149-189-190-145-76-677-229-995-287-468-85-707-108-1120-110-322-1-432 6-725 46-265 36-259 35-615 113-76 17-215 56-350 100-41 13-101 31-133 40s-73 24-91 34-51 22-73 26c-23 3-49 13-60 20-10 8-25 15-33 15s-43 25-77 55c-105 94-142 204-109 320 32 110 156 206 266 208 55 1 129-31 231-101 99-66 152-92 291-140 222-78 467-133 758-172 234-30 405-40 731-40 509 0 837 45 1339 182 205 56 328 107 468 193 127 77 199 107 242 98 14-3 53-18 87-34zm381-1187c149-47 242-168 245-319 2-121-95-253-236-322-180-89-776-263-1142-335-284-56-568-95-875-122-245-21-917-15-1150 11-377 41-500 59-700 101-69 14-152 32-185 39-33 6-96 23-140 37s-97 29-119 33c-21 3-46 10-55 15s-52 16-96 26c-44 9-84 21-90 26-5 4-16 8-24 8-16 0-218 62-345 106-138 48-236 126-282 226-25 54-29 75-29 148 1 69 5 94 25 135 49 100 164 179 276 191 51 5 70 2 129-21 39-15 100-45 137-67 152-88 316-147 598-218 244-61 476-104 690-130 52-6 127-15 165-20 120-16 200-20 545-30 485-15 754 2 1184 74 405 69 773 181 1101 336 196 94 262 106 373 72zM7528 8244c42-9 148-45 235-80 276-113 412-156 752-239 413-100 617-133 1115-180 231-22 808-31 1052-16 679 41 1343 178 1963 407 376 138 400 143 533 98 126-42 210-116 266-234 27-57 31-76 31-150 0-76-4-92-33-150-64-126-181-221-355-289-449-174-1074-329-1677-415-503-72-492-71-1130-71-565 0-815 10-845 35-5 4-62 10-125 13-127 6-327 29-429 51-36 8-104 22-151 31-87 17-259 52-385 79-88 18-267 66-280 75-18 12-78 29-140 40s-267 72-320 96c-16 7-57 23-90 35-225 83-325 152-395 269-54 91-75 186-60 266 16 82 64 167 123 221 66 59 182 115 255 123 7 0 48-6 90-15zm303-1432c15-9 60-55 101-102 196-224 477-441 748-580 100-50 180-84 378-156 55-20 82-62 82-126 0-41-5-52-38-88-34-35-44-40-84-40-132 0-722 307-953 496-103 84-386 367-406 406-49 96 7 208 105 208 22 0 53-8 67-18zm1849-991c88-46 106-150 38-218-40-40-87-54-138-40-66 17-100 67-100 146 0 78 51 129 130 130 19 1 51-7 70-18z" style="transform:none" fill="#7FCF42" stroke="#7FCF42" stroke-width="10"/>
  </g>
  <g>
    <g style="transform:none" fill="#39B960" stroke="#39B960" stroke-width="10">
      <path d="M6278 16053c-27-19-48-40-48-46 0-8 4-7 12 1 7 7 19 12 27 12 11 0 10-4-5-15-18-13-16-14 22-15 45 0 69 14 79 48 7 24-4 29-24 10-11-11-12-8-7 15 8 34 2 33-56-10zM10050 13044c-25-2-101-8-170-14-241-20-526-64-670-101-548-145-871-283-1355-579-255-156-451-315-690-561-279-287-560-683-707-999-137-291-196-465-268-782-66-291-80-436-87-875-6-352-5-383 10-383 10 0 17 6 17 14s5 16 11 18 14 30 18 63c21 163 162 582 267 790 46 91 233 394 305 495 150 209 435 491 740 731 138 108 320 224 609 386 374 209 957 413 1370 478 58 9 152 25 210 35 186 34 368 43 708 37 285-5 338-9 522-36 266-40 383-63 560-112 172-47 371-109 385-119 6-4 42-17 80-29 71-22 95-32 285-116 213-95 364-179 580-321 167-111 189-126 305-219 256-205 361-302 523-484 199-223 252-295 382-511 189-313 337-719 375-1028 5-35 11-52 21-52 8 0 14-7 14-15s7-15 15-15c13 0 15 50 15 388 0 393-10 558-45 757-131 740-553 1501-1130 2037-198 185-426 363-562 440-28 16-57 36-63 43-7 8-17 15-22 15-6 0-56 26-112 58-129 75-324 170-454 221-56 22-118 50-139 61s-44 20-51 20-26 7-42 15c-26 13-131 46-325 101-27 8-75 19-105 25s-59 14-65 19c-5 4-30 10-55 13s-124 19-220 37c-96 17-202 35-235 41-61 9-673 20-755 13z"/>
    </g>
  </g>
  <g>
    <g style="transform:none" fill="#001016" stroke="#001016" stroke-width="10">
      <path d="M 10030 17914 C 10011 17912 9932 17905 9855 17900 C 9340 17860 8685 17741 8205 17598 C 8104 17568 7690 17419 7542 17359 C 7283 17255 6816 17034 6630 16927 C 5869 16491 5210 15939 4583 15212 C 4384 14981 4074 14541 3851 14170 C 3595 13747 3337 13171 3177 12670 C 3095 12415 3090 12398 3036 12165 C 2932 11722 2890 11457 2848 10995 C 2831 10802 2831 9963 2848 9770 C 2911 9068 3041 8467 3276 7797 C 3392 7464 3607 7000 3794 6677 C 4062 6213 4385 5763 4728 5378 C 4989 5085 5229 4850 5444 4680 C 5461 4667 5521 4615 5576 4565 C 5632 4516 5697 4462 5720 4445 C 5744 4429 5793 4389 5829 4358 C 5865 4326 5899 4300 5905 4300 C 5911 4300 5927 4288 5941 4274 C 5954 4260 6001 4223 6045 4193 C 6089 4163 6159 4114 6200 4085 C 6241 4055 6279 4031 6283 4030 C 6287 4030 6330 4004 6378 3971 C 6502 3888 6566 3847 6634 3811 C 6667 3794 6699 3775 6706 3769 C 6753 3730 7484 3369 7545 3354 C 7562 3350 7580 3344 7585 3339 C 7600 3328 7914 3207 7985 3186 C 8018 3176 8052 3164 8061 3160 C 8074 3153 8343 3073 8405 3057 C 8416 3054 8468 3040 8520 3026 C 8675 2983 8869 2940 8906 2940 C 8925 2940 8948 2936 8958 2931 C 8973 2922 9182 2892 9375 2869 C 9414 2865 9501 2855 9570 2846 C 9639 2838 9731 2826 9775 2821 C 9909 2805 10478 2797 10665 2809 C 11471 2862 12209 3029 12941 3325 C 13183 3422 13711 3680 13900 3792 C 14517 4159 15000 4538 15510 5056 C 15778 5328 16036 5624 16226 5875 C 16298 5970 16569 6366 16631 6466 C 16926 6944 17135 7395 17313 7935 C 17517 8553 17639 9154 17691 9795 C 17700.659 9909.386 17748.717 10638.47 17653.457 11431.311 C 17561.338 12198.01 17329.539 13025.588 17126 13342 C 16859 13959 16572 14438 16137 14997 C 15829 15392 15368 15879 15018 16177 C 14878 16297 14530 16557 14350 16677 C 13802 17042 13237 17316 12570 17542 C 11825 17793 11162 17907 10385 17915 C 10209 17917 10049 17916 10030 17914 Z M 5985 16214 C 6039 16241 10209 16277 10168 16240 C 10125 16202 10125 16202 10122 15996 C 10119 15790 10119 15790 10056 15790 C 10021 15790 9989 15785 9982 15778 C 9973 15769 9970 15680 9970 15440 C 9970 15060 9967 15073 10058 15068 C 10115 15065 10115 15065 10118 14763 C 10120 14460 10120 14460 10045 14460 C 9970 14460 9970 14460 9970 14335 C 9970 14191 9971 14190 10064 14190 C 10120 14190 10120 14190 10120 14062 C 10120 13952 10123 13931 10138 13918 C 10167 13892 10219 13880 10297 13880 C 10366 13880 10374 13882 10401 13909 C 10430 13938 10430 13939 10430 14064 C 10430 14190 10430 14190 10500 14190 C 10588 14190 10592 14195 10588 14337 C 10585 14445 10585 14445 10510 14450 C 10435 14455 10435 14455 10432 14505 C 10430 14533 10431 14669 10435 14808 C 10442 15060 10442 15060 10492 15060 C 10530 15060 10548 15065 10566 15083 C 10590 15105 10590 15105 10590 15435 C 10590 15617 10586 15770 10582 15777 C 10578 15784 10546 15790 10510 15792 C 10445 15795 10445 15795 10442 16012 C 10440 16217 10438 16230 10420 16240 C 10402 16249 14241 16321 14278 16315 C 14625 16264 14976 15960 15097 15605 C 15147 15458 15150 15407 15150 14674 C 15150 14105 15147 13978 15135 13904 C 15106 13741 15045 13625 14925 13505 C 14843 13423 14774 13379 14663 13338 C 14609 13318 14581 13316 14250 13311 C 14055 13308 12115 13305 9940 13306 C 6285 13307 5980 13308 5925 13324 C 5676 13393 5492 13587 5419 13855 C 5397 13933 5397 13955 5392 14627 C 5388 15381 5390 15427 5440 15581 C 5536 15873 5717 16084 5985 16214 Z M 10312 15945 C 10313 15876 10314 15812 10314 15803 C 10315 15789 10306 15784 10278 15782 C 10240 15779 10240 15779 10240 15924 C 10240 16070 10240 16070 10275 16070 C 10310 16070 10310 16070 10312 15945 Z M 10434 15574 C 10448 15569 10450 15544 10450 15404 C 10450 15240 10450 15240 10280 15240 C 10110 15240 10110 15240 10110 15375 C 10110 15508 10110 15510 10133 15511 C 10155 15513 10155 15513 10133 15517 C 10115 15520 10110 15528 10110 15551 C 10110 15580 10110 15580 10264 15580 C 10349 15580 10425 15577 10434 15574 Z M 10317 14903 C 10313 14816 10310 14676 10310 14592 C 10310 14439 10310 14439 10273 14442 C 10235 14445 10235 14445 10232 14753 C 10228 15060 10228 15060 10276 15060 C 10323 15060 10323 15060 10317 14903 Z M 10305 14165 C 10305 14126 10304 14125 10270 14125 C 10239 14125 10235 14128 10232 14153 C 10227 14199 10236 14212 10272 14208 C 10303 14205 10305 14203 10305 14165 Z M 8214 12999 C 8244 12963 8245 12958 8225 12916 C 8194 12852 8185 12850 7850 12850 C 7579 12850 7540 12848 7468 12830 C 7294 12785 7203 12724 6983 12504 C 6899 12421 6803 12331 6769 12306 C 6628 12200 6499 12149 6328 12131 C 6150 12112 6064 12081 5953 11998 C 5896 11955 5809 11852 5766 11779 C 5718 11695 5682 11578 5670 11470 C 5665 11414 5660 11361 5660 11354 C 5660 11342 5645 11340 5588 11342 C 5515 11345 5515 11345 5517 11480 C 5518 11594 5522 11627 5544 11695 C 5650 12027 5965 12278 6308 12305 C 6515 12321 6648 12397 6870 12627 C 7073 12838 7225 12939 7412 12990 C 7532 13023 7593 13027 7902 13029 C 8188 13030 8188 13030 8214 12999 Z M 13058 13019 C 13084 13012 13110 13004 13115 13000 C 13121 12997 13152 12985 13185 12974 C 13218 12964 13276 12938 13314 12918 C 13352 12897 13387 12880 13392 12880 C 13410 12880 13483 12817 13645 12662 C 13873 12443 13981 12367 14169 12292 C 14324 12230 14428 12209 14600 12203 C 14837 12195 15024 12233 15227 12330 C 15354 12390 15424 12436 15494 12505 C 15567 12577 15603 12632 15640 12726 C 15676 12819 15714 12860 15764 12860 C 15807 12860 15840 12822 15840 12775 C 15840 12726 15750 12557 15680 12473 C 15514 12273 15262 12124 14976 12057 C 14898 12039 14854 12036 14670 12035 C 14433 12035 14341 12049 14161 12112 C 13943 12188 13810 12274 13601 12473 C 13415 12651 13317 12726 13206 12779 C 13060 12849 12998 12860 12743 12860 C 12491 12860 12470 12865 12444 12926 C 12428 12963 12436 12992 12469 13017 C 12491 13034 12991 13035 13058 13019 Z M 10775 13000 C 10808 12995 10914 12977 11010 12960 C 11106 12942 11205 12926 11230 12923 C 11255 12920 11280 12914 11285 12910 C 11291 12905 11320 12897 11350 12891 C 11380 12885 11428 12874 11455 12866 C 11649 12811 11754 12778 11780 12765 C 11796 12757 11815 12750 11822 12750 C 11829 12750 11852 12741 11873 12730 C 11894 12719 11956 12691 12012 12669 C 12142 12618 12337 12523 12466 12448 C 12522 12416 12572 12390 12578 12390 C 12583 12390 12593 12383 12600 12375 C 12606 12368 12635 12348 12663 12332 C 12799 12255 13027 12077 13225 11892 C 13812 11347 14233 10579 14359 9825 C 14397 9596 14402 9465 14398 8825 C 14393 8153 14389 8108 14319 7790 C 14238 7428 14161 7220 13970 6851 C 13844 6607 13725 6431 13496 6145 C 13153 5719 12706 5364 12186 5107 C 11879 4955 11695 4886 11342 4791 C 11014 4702 10765 4671 10330 4663 C 10047 4658 9997 4660 9835 4679 C 9268 4748 8847 4871 8395 5100 C 8038 5282 7807 5435 7490 5701 C 7197 5947 6885 6320 6650 6705 C 6588 6807 6437 7102 6397 7200 C 6314 7402 6232 7668 6190 7877 C 6145 8104 6139 8218 6138 8870 C 6136 9568 6141 9629 6220 9978 C 6284 10257 6338 10426 6435 10645 C 6613 11046 6877 11432 7195 11759 C 7434 12005 7630 12164 7885 12320 C 8369 12616 8692 12754 9240 12899 C 9384 12936 9669 12980 9910 13000 C 9979 13006 10055 13012 10080 13014 C 10159 13021 10713 13010 10775 13000 Z M 6259 12984 C 6283 12964 6290 12950 6290 12923 C 6290 12880 6245 12831 6203 12828 C 6118 12824 5782 12834 5768 12841 C 5739 12857 5717 12908 5725 12946 C 5736 13007 5749 13010 6001 13010 C 6228 13010 6228 13010 6259 12984 Z M 14889 12824 C 14916 12802 14920 12792 14920 12750 C 14920 12711 14915 12696 14891 12671 C 14867 12646 14854 12640 14820 12640 C 14762 12640 14710 12690 14710 12745 C 14710 12774 14718 12790 14744 12816 C 14788 12860 14843 12863 14889 12824 Z M 5250 12353 C 5310 12299 5293 12210 5216 12174 C 5174 12153 5141 12161 5097 12199 C 5070 12224 5065 12235 5065 12275 C 5065 12315 5070 12326 5098 12351 C 5143 12391 5207 12392 5250 12353 Z M 15833 11529 C 15884 11474 15855 11381 15778 11352 C 15732 11334 15696 11349 15663 11399 C 15635 11440 15634 11464 15659 11510 C 15693 11575 15781 11584 15833 11529 Z M 4819 11531 C 4833 11512 4840 11486 4840 11455 C 4840 11417 4835 11403 4811 11379 C 4756 11324 4665 11348 4640 11424 C 4616 11498 4666 11560 4750 11560 C 4792 11560 4801 11556 4819 11531 Z M 5698 10975 C 5764 10919 5760 11026 5760 9500 C 5760 8121 5760 8118 5739 8081 C 5705 8020 5675 8005 5593 8005 C 5531 8005 5518 8008 5494 8030 C 5431 8089 5435 7987 5437 9509 C 5439 10836 5440 10893 5457 10923 C 5489 10977 5534 11000 5606 11000 C 5658 11000 5673 10996 5698 10975 Z M 15032 10983 C 15048 10973 15070 10952 15079 10935 C 15097 10907 15098 10832 15104 9530 C 15107 8704 15106 8140 15101 8116 C 15090 8069 15039 8014 14993 7999 C 14921 7976 14834 8014 14802 8084 C 14781 8127 14781 8140 14779 9502 C 14777 10877 14777 10877 14799 10914 C 14835 10971 14885 11000 14948 11000 C 14981 11000 15013 10993 15032 10983 Z M 15684 10612 C 15945 10475 16170 10174 16251 9853 C 16316 9596 16304 9284 16221 9037 C 16103 8691 15798 8348 15533 8266 C 15510 8259 15510 8259 15510 9454 C 15511 10112 15513 10656 15516 10664 C 15524 10684 15576 10668 15684 10612 Z M 5028 9470 C 5030 8810 5029 8266 5025 8260 C 5018 8248 4935 8280 4883 8315 C 4862 8329 4828 8351 4807 8365 C 4626 8486 4408 8797 4322 9057 C 4265 9229 4255 9296 4255 9515 C 4255 9729 4264 9789 4318 9950 C 4385 10153 4533 10376 4671 10485 C 4793 10582 4948 10668 5000 10669 C 5025 10670 5025 10670 5028 9470 Z M 15271 7698 C 15324 7683 15383 7630 15409 7575 C 15438 7514 15438 7415 15409 7359 C 15353 7248 15259 7191 15153 7204 C 15084 7212 15053 7228 15006 7280 C 14958 7333 14940 7377 14940 7437 C 14940 7511 14957 7554 15007 7610 C 15086 7699 15174 7728 15271 7698 Z M 5448 7686 C 5483 7667 5544 7603 5564 7563 C 5572 7546 5583 7507 5586 7477 C 5597 7381 5534 7274 5438 7226 C 5332 7173 5221 7200 5148 7295 C 5046 7430 5092 7594 5254 7675 C 5312 7704 5404 7709 5448 7686 Z M 5755 6946 C 5796 6928 5833 6875 5918 6705 C 6080 6381 6250 6123 6485 5845 C 6611 5696 6620 5682 6620 5647 C 6620 5598 6556 5500 6524 5500 C 6517 5500 6498 5476 6482 5446 C 6441 5375 6409 5350 6354 5350 C 6298 5350 6273 5372 6126 5549 C 5859 5871 5695 6121 5549 6425 C 5461 6609 5457 6625 5474 6725 C 5497 6854 5538 6914 5627 6946 C 5677 6963 5713 6963 5755 6946 Z M 14929 6945 C 14967 6926 15038 6845 15061 6795 C 15091 6731 15086 6637 15049 6543 C 14966 6333 14769 5993 14612 5785 C 14535 5684 14314 5417 14282 5387 C 14244 5351 14186 5341 14142 5364 C 14119 5376 14102 5399 14078 5450 C 14056 5496 14039 5520 14028 5520 C 13999 5520 13941 5579 13929 5620 C 13914 5670 13922 5684 14122 5928 C 14346 6202 14417 6309 14595 6650 C 14711 6873 14736 6912 14784 6941 C 14821 6964 14890 6966 14929 6945 Z M 7150 5170 C 7199 5145 7269 5098 7345 5039 C 7403 4995 7573 4876 7608 4855 C 7618 4850 7639 4835 7655 4824 C 7672 4812 7710 4790 7740 4775 C 7770 4760 7809 4737 7825 4725 C 7842 4712 7896 4681 7945 4655 C 7995 4629 8040 4604 8047 4598 C 8063 4585 8254 4501 8440 4424 C 8704 4315 9219 4171 9448 4141 C 9485 4136 9567 4123 9630 4112 C 9819 4079 10064 4067 10415 4072 C 10745 4077 10880 4089 11175 4140 C 11523 4200 11917 4322 12272 4479 C 12612 4629 12861 4774 13236 5037 C 13329 5103 13421 5162 13439 5168 C 13494 5187 13560 5173 13602 5132 C 13646 5090 13684 5013 13694 4948 C 13703 4886 13679 4831 13614 4768 C 13472 4633 13133 4392 12890 4253 C 12456 4004 11902 3799 11390 3696 C 11194 3657 10862 3612 10670 3599 C 10482 3586 9934 3594 9825 3610 C 9792 3615 9730 3622 9687 3626 C 9644 3630 9607 3637 9604 3641 C 9601 3646 9573 3650 9541 3650 C 9490 3650 9414 3662 9215 3701 C 9182 3707 9119 3724 9075 3737 C 9031 3751 8969 3764 8937 3767 C 8905 3770 8877 3777 8874 3781 C 8871 3786 8857 3790 8842 3790 C 8827 3790 8802 3797 8786 3805 C 8771 3813 8749 3820 8738 3820 C 8727 3820 8704 3826 8687 3834 C 8669 3841 8628 3855 8595 3865 C 8537 3881 8484 3902 8448 3921 C 8438 3926 8422 3930 8411 3930 C 8401 3930 8382 3938 8369 3948 C 8356 3959 8327 3972 8305 3978 C 8228 3999 8161 4026 8025 4090 C 7981 4111 7909 4145 7865 4165 C 7821 4186 7778 4209 7770 4216 C 7762 4223 7717 4248 7670 4273 C 7494 4364 7293 4492 7153 4601 C 7118 4628 7088 4650 7085 4650 C 7071 4650 6991 4712 6934 4767 C 6853 4844 6837 4878 6842 4949 C 6855 5119 7019 5237 7150 5170 Z" style="">
        <title>Cover</title>
      </path>
      <path d="M13215 16284c-178-27-333-74-483-147-131-64-221-124-322-216-236-214-394-482-456-771-25-117-25-390-1-513 88-444 376-819 787-1027 130-65 223-95 374-121 110-18 156-20 320-17 214 6 312 25 467 92 281 121 551 355 695 601 93 160 123 217 118 229-3 7 4 51 15 97 43 179 56 434 33 614-26 199-119 431-231 580-258 341-526 509-926 580-89 16-332 28-390 19zm390-164c105-23 173-44 232-71 24-10 47-19 53-19 5 0 31-12 57-27 248-138 451-340 563-563 91-181 128-358 124-590-3-163-20-269-66-398-81-232-247-459-439-602-148-110-357-202-534-235-134-26-404-16-535 18-299 78-580 273-759 523-81 114-111 174-165 331-83 245-94 442-35 680 71 289 243 535 519 740 145 108 382 201 575 226 17 2 95 5 175 5 111 1 166-3 235-18z" style=""/>
      <path d="M13164 16011c-239-43-419-133-617-306-188-164-320-393-362-629-23-127-16-338 15-466 43-176 177-404 331-561 131-133 348-259 519-299 52-12 113-27 135-34 23-6 109-11 200-11 143 1 171 4 260 28 345 95 613 313 765 622 147 299 167 581 63 893-59 178-145 305-318 470-148 140-240 195-428 257-141 47-143 47-302 51-125 3-182 0-261-15zm339-92c185-27 450-161 573-291 56-58 187-221 205-254 13-25 12-28-21-55-19-16-37-29-40-29s-39 45-79 100c-44 61-79 100-90 100-9 0-32-15-50-34-33-34-33-34 8-87 22-29 52-75 67-102 26-49 26-49 0-76-27-26-27-26-49 0-12 15-43 55-69 91-46 64-46 64-102 64-51 0-56-2-56-23 0-12 4-24 9-28 5-3 37-39 70-81 52-64 59-78 50-95-6-11-16-22-23-25-6-2-52 35-102 83-118 117-225 174-354 187-19 2-38 4-42 5-5 0-8 17-8 36 0 34 1 35 38 35 46 0 170-34 223-61 46-23 59-19 59 20 0 24-7 31-47 49-77 33-144 52-208 60-60 7-60 7-63 45-2 25 1 39 11 43 20 7 185-31 260-60 35-14 69-26 75-26 19 0 34 38 23 59-19 35-184 89-323 106-48 6-48 6-48 47s0 41 55 34c69-8 137-26 247-67 96-35 118-31 118 18 0 19-10 28-47 44-72 31-200 66-292 80-81 12-81 12-81 49 0 56-2 55 103 39zm-22-751c68-31 137-98 169-163 21-43 25-64 25-145 0-78-4-103-23-141-36-74-87-125-160-161-60-30-75-33-157-33-81 0-95 3-143 29-162 90-231 282-158 441 42 92 105 151 199 186 71 27 173 21 248-13zm-613-490c3-13 23-56 44-97 36-70 37-76 23-98-9-13-19-23-23-23-8 0-71 96-95 145-8 17-18 45-22 63-6 32-6 32 30 32 30 0 38-4 43-22zm-462-60c29-88 86-205 121-246 26-31 29-32 50-18 21 16 21 16-26 94-45 75-76 155-83 212-3 23 0 25 37 25 39 0 39 0 66-71 44-119 82-171 119-159 26 8 25 29-2 67-23 33-67 134-68 156 0 20 70 15 76-5 19-59 81-168 120-212 25-28 43-55 39-61-9-15-215-199-242-217-23-15-26-14-69 28-99 97-212 304-229 421-6 40-4 47 12 51 47 13 57 4 79-65z" style=""/>
      <path d="M13284 15010c-33-13-82-77-90-115-17-91 51-175 142-175 108 0 180 143 119 236-35 53-112 78-171 54zm96-120c9-34 1-59-22-71-45-24-92 36-61 81 22 31 75 25 83-10zM6865 16255c-132-24-220-56-414-152-190-94-197-99-300-196-432-408-575-961-391-1512 119-356 403-666 747-814 187-81 311-110 508-118 238-10 442 34 661 142 294 145 526 371 659 640 61 125 115 276 115 326 1 19 7 63 15 99 24 111 20 328-11 470-64 305-179 518-393 728-134 131-233 202-374 271-216 105-330 131-577 130-96 0-206-7-245-14zm397-135c76-7 136-20 207-45 55-19 109-35 120-35s22-4 25-9 29-21 58-36 72-41 95-56c23-16 46-29 51-29s63-55 128-122c206-212 313-405 370-665 23-107 24-357 0-475-57-293-149-472-346-668-117-118-204-181-345-250-201-98-337-130-553-130-346 0-635 121-884 370-160 161-260 329-322 541-39 135-49 233-43 407 8 245 62 415 192 612 154 232 374 414 619 509 218 85 374 105 628 81z" style=""/>
      <path d="M6922 16005c-305-53-588-232-777-490-82-112-160-271-192-390-23-89-26-119-27-275-1-162 1-182 27-274 52-189 148-360 286-514 145-163 301-257 526-319 95-26 111-28 310-28 201 0 214 2 300 28 526 163 855 589 855 1105 0 326-116 611-339 833-136 135-284 223-496 295-103 35-119 37-250 40-90 2-170-2-223-11zm255-824c63-23 98-47 148-102 80-89 106-222 65-331-26-70-103-158-163-187-175-85-384-12-463 162-55 121-33 259 56 360 87 100 239 141 357 98zm-623-551c23-57 99-172 135-204 12-11 21-24 21-30 0-18 63-80 100-98 19-10 68-27 108-39 70-20 72-22 72-53 0-18-3-35-6-38-6-7-158 34-219 58-22 8-52 27-68 42-23 22-31 24-54 16-94-33 33-136 217-178 41-10 85-19 98-22 18-4 22-11 22-44 0-32-4-40-18-40-46 0-145 27-232 62-132 55-137 56-152 23-11-25-10-29 14-50 39-33 192-91 296-111 92-17 92-17 92-55s0-38-37-33c-207 28-408 115-535 232-133 124-253 315-293 471-14 56-15 66-2 79 10 9 24 12 39 9 22-6 29-17 58-97 26-70 79-166 103-189 30-27 52-23 68 12 9 20 5 35-21 88-37 72-70 163-70 190 0 12 12 21 37 28 20 6 37 9 37 8 19-65 56-153 82-194 36-56 67-73 103-54 23 13 21 23-16 87-21 37-63 147-63 165 0 7 36 18 53 15 5-1 18-26 31-56z" style=""/>
      <path d="M6994 14991c-17-11-41-40-54-66-20-42-21-51-10-88 23-78 104-131 175-113 39 10 94 64 104 104 12 44 0 105-26 134-45 50-132 64-189 29zm120-97c20-19 20-34 0-62-27-40-94-24-94 22 0 47 61 73 94 40zM8383 16164c-38-19-58-62-49-109 8-43 30-55 95-55 47 0 53 3 71 33 30 48 26 80-15 116-40 35-56 37-102 15zM6182 15968c-40-40-79-84-88-98s25 17 76 67c52 51 91 95 88 98s-37-27-76-67zM9089 16027c-107-40-161-106-167-205-6-83 16-138 74-191 55-51 79-61 155-61 168 0 294 172 233 318-45 110-190 178-295 139zm127-142c48-33 54-105 14-145-29-29-115-28-147 2-57 53-8 158 74 158 21 0 48-7 59-15zM11301 16026c-85-31-161-136-161-224 0-124 114-233 244-232 61 1 162 55 199 107 63 89 42 233-46 308-62 54-156 70-236 41zm130-136c10-6 26-24 35-41 41-81-52-167-134-125-37 19-52 44-52 83 1 66 90 115 151 83zM8958 15312c-37-1-71-8-77-15-6-8-13-122-17-288-7-276-7-276 17-292 20-15 56-17 265-17 221 0 242 2 257 18s17 51 17 290c0 259-1 273-20 292s-31 20-198 18c-97-1-207-4-244-6zm306-198c4-9 6-68 5-131-1-114-1-114-122-111-122 3-122 3-125 117-1 63 0 121 2 128 4 10 35 13 120 13 96 0 115-3 120-16zM11130 15290c-19-19-20-33-20-289 0-232 2-272 16-285 23-24 478-24 512 0 22 15 22 17 22 288 0 252-1 274-18 289-16 15-49 17-255 17-224 0-238-1-257-20zm378-293c3-128 3-128-119-125s-122 3-121 128c1 69 1 126 2 128 0 1 53 1 118 0 117-3 117-3 120-131zM11350 14333c-59-9-92-27-134-74-70-78-83-176-35-270 17-35 93-109 111-109 4 0 8-47 8-105 0-106 0-106 68-103 67 3 67 3 70 105s3 102 45 121c114 50 160 191 102 309-44 88-141 140-235 126zm74-143c29-10 56-57 56-94 0-34-47-85-86-92-25-5-38 0-67 25-41 37-53 73-36 113 20 48 78 69 133 48zM9049 14302c-94-49-139-161-109-270 15-57 80-128 131-144 39-11 39-11 39-113 0-99 1-102 26-113 26-12 69-7 92 11 8 6 12 40 12 101 0 91 0 91 55 139 104 91 127 193 68 298-63 114-197 152-314 91zm176-137c25-24 33-73 19-110-10-26-62-48-100-41-71 14-101 113-48 155 38 30 98 28 129-4zM14568 13809c-34-13-62-70-53-109 20-91 160-91 180 1 9 41-11 86-46 104-32 17-43 17-81 4zM12198 10865c-26-9-102-49-170-90-140-86-263-137-468-193-491-135-833-182-1309-182-297 0-472 10-701 40-291 39-536 94-758 172-139 48-192 74-291 140-121 83-174 103-261 102-98-1-162-28-229-99-64-67-85-134-79-246 6-104 39-171 121-244 34-30 69-55 77-55s23-7 33-15c11-7 37-17 60-20 22-4 55-16 73-26s59-25 91-34 92-27 133-40c135-44 274-83 350-100 356-78 350-77 615-113 298-41 402-47 755-46 444 1 671 23 1150 110 317 57 852 212 993 287 234 123 289 359 131 554-70 85-215 130-316 98zM12530 9651c-30-10-104-42-165-71-217-102-516-208-768-270-271-66-665-122-980-139-244-14-824 3-1022 29-38 5-113 14-165 20-214 26-446 69-690 130-282 71-446 130-598 218-37 22-98 52-137 67-62 25-79 27-156 23-69-4-98-11-144-34-73-37-134-95-165-159-22-44-25-63-25-165 0-106 2-120 29-178 46-100 144-178 282-226 127-44 329-106 345-106 8 0 19-4 24-8 6-5 46-17 90-26 44-10 87-21 96-26s34-12 55-15c22-4 75-19 119-33s107-31 140-37c33-7 116-25 185-39 193-41 306-58 650-96 308-34 955-42 1267-15 299 26 587 66 868 121 367 72 962 246 1142 335 89 43 166 117 205 197 30 61 33 74 32 157-1 100-16 150-64 220-84 122-288 179-450 126zM7370 8283c-49-9-168-73-217-117-177-159-173-459 8-636 77-75 149-115 324-180 33-12 74-28 90-35 53-24 258-85 320-96s122-28 140-40c13-9 192-57 280-75 126-27 298-62 385-79 47-9 115-23 151-31 102-22 302-45 429-51 63-3 120-9 125-13 31-25 280-35 875-35 671 0 654-1 1160 71 603 86 1228 241 1677 415 174 68 291 163 355 289 32 62 33 70 33 180 0 108-2 119-31 180-77 164-234 260-423 260-90 0-127-10-436-124-618-228-1278-365-1957-407-236-14-763-6-998 16-495 46-702 80-1115 180-340 83-476 126-752 239-203 83-320 107-423 89z" style=""/>
    </g>
  </g>
</svg>